<svg width="87" height="87" viewBox="0 0 87 87" fill="none" xmlns="http://www.w3.org/2000/svg">
<ellipse opacity="0.0786365" cx="43.4364" cy="43.5" rx="43.4364" ry="43.5" fill="white"/>
<path d="M50.6531 35.4409H29.1481C28.0674 35.4554 27.0365 35.8977 26.2814 36.6709C25.5262 37.4441 25.1083 38.4852 25.1194 39.5659V50.5659C25.1083 51.6467 25.5262 52.6877 26.2814 53.4609C27.0365 54.2341 28.0674 54.6764 29.1481 54.6909H42.9944L48.3087 59.0428C48.5102 59.2084 48.7547 59.3133 49.0136 59.3453C49.2725 59.3772 49.5351 59.3348 49.7708 59.2231C50.0065 59.1114 50.2056 58.9349 50.3448 58.7143C50.4839 58.4937 50.5575 58.238 50.5569 57.9772V54.6909C51.6481 54.6819 52.6921 54.2445 53.4637 53.4728C54.2354 52.7012 54.6729 51.6572 54.6819 50.5659V39.5659C54.6929 38.4852 54.275 37.4441 53.5198 36.6709C52.7647 35.8977 51.7338 35.4554 50.6531 35.4409ZM31.9944 46.4409C31.7224 46.4409 31.4566 46.3603 31.2304 46.2092C31.0043 46.0581 30.8281 45.8434 30.724 45.5921C30.6199 45.3409 30.5927 45.0644 30.6458 44.7977C30.6988 44.5309 30.8298 44.2859 31.0221 44.0936C31.2144 43.9013 31.4594 43.7704 31.7261 43.7173C31.9928 43.6643 32.2693 43.6915 32.5205 43.7956C32.7718 43.8997 32.9865 44.0759 33.1376 44.302C33.2887 44.5281 33.3694 44.794 33.3694 45.0659C33.3694 45.4306 33.2245 45.7803 32.9666 46.0382C32.7088 46.2961 32.359 46.4409 31.9944 46.4409ZM39.5569 46.4409C39.2849 46.4409 39.0191 46.3603 38.7929 46.2092C38.5668 46.0581 38.3906 45.8434 38.2865 45.5921C38.1824 45.3409 38.1552 45.0644 38.2083 44.7977C38.2613 44.5309 38.3923 44.2859 38.5846 44.0936C38.7769 43.9013 39.0219 43.7704 39.2886 43.7173C39.5553 43.6643 39.8318 43.6915 40.083 43.7956C40.3343 43.8997 40.549 44.0759 40.7001 44.302C40.8512 44.5281 40.9319 44.794 40.9319 45.0659C40.9319 45.4306 40.787 45.7803 40.5291 46.0382C40.2713 46.2961 39.9215 46.4409 39.5569 46.4409ZM47.1194 46.4409C46.8474 46.4409 46.5816 46.3603 46.3554 46.2092C46.1293 46.0581 45.9531 45.8434 45.849 45.5921C45.7449 45.3409 45.7177 45.0644 45.7708 44.7977C45.8238 44.5309 45.9548 44.2859 46.1471 44.0936C46.3394 43.9013 46.5844 43.7704 46.8511 43.7173C47.1178 43.6643 47.3943 43.6915 47.6455 43.7956C47.8968 43.8997 48.1115 44.0759 48.2626 44.302C48.4137 44.5281 48.4944 44.794 48.4944 45.0659C48.4944 45.4306 48.3495 45.7803 48.0916 46.0382C47.8338 46.2961 47.484 46.4409 47.1194 46.4409ZM62.2444 32.6909V43.6909C62.2554 44.7717 61.8375 45.8127 61.0823 46.5859C60.3272 47.3591 59.2963 47.8014 58.2156 47.8159H56.0569V39.5659C56.0678 38.1205 55.5051 36.7298 54.4921 35.6987C53.4791 34.6676 52.0985 34.0804 50.6531 34.0659H32.6819V32.6909C32.6708 31.6102 33.0887 30.5691 33.8439 29.7959C34.599 29.0227 35.6299 28.5804 36.7106 28.5659H58.2156C59.2963 28.5804 60.3272 29.0227 61.0823 29.7959C61.8375 30.5691 62.2554 31.6102 62.2444 32.6909Z" fill="#3CC186"/>
</svg>
