<svg width="222" height="9" viewBox="0 0 222 9" fill="none" xmlns="http://www.w3.org/2000/svg">
<path d="M17.6361 3.36672C22.4665 2.99911 27.298 2.69207 32.1294 2.35811C33.7236 2.24501 35.3271 2.19901 36.9222 2.11956C40.3838 1.94614 43.8463 1.77941 47.3085 1.60596C49.2347 1.51027 51.1672 1.40767 53.0928 1.31873C53.6554 1.29585 54.2084 1.27324 54.7712 1.25708C56.0273 1.22103 57.2852 1.19838 58.5415 1.16906C64.2549 1.01182 69.9765 0.854363 75.6898 0.690395C77.0543 0.651234 78.4108 0.639242 79.7757 0.61354C83.1503 0.550363 86.5156 0.494212 89.8821 0.431268C93.6862 0.362503 97.4821 0.266993 101.287 0.238606C107.442 0.183185 113.588 0.134785 119.744 0.079349C123.309 0.0511118 126.866 -0.0105694 130.433 0.00154158C136.573 0.0273628 142.706 0.0466711 148.846 0.0657581C152.198 0.0773275 155.557 0.068485 158.91 0.127148C165.26 0.234509 171.609 0.335111 177.959 0.442469C181.354 0.499956 184.747 0.517063 188.135 0.655534C194.464 0.911647 200.785 1.168 207.115 1.42412C208.482 1.47917 209.848 1.53422 211.215 1.58927C213.949 1.69938 216.67 1.91766 219.397 2.08857C219.571 2.10377 219.737 2.11923 219.911 2.1277C220.236 2.19247 220.529 2.31873 220.774 2.507C221.138 2.78615 221.356 3.18396 221.368 3.59448C221.38 4.00491 221.185 4.41462 220.838 4.72089C220.523 4.99255 219.968 5.25097 219.487 5.21768C216.196 5.00901 212.912 4.78671 209.624 4.65217C206.567 4.5311 203.518 4.40307 200.461 4.28202C197.131 4.14866 193.8 4.01524 190.47 3.88182C189.128 3.82605 187.785 3.74338 186.436 3.7215C181.245 3.63476 176.054 3.55472 170.864 3.46797C167.626 3.41271 164.39 3.3642 161.153 3.30893C159.811 3.28681 158.478 3.25099 157.137 3.24231C151.998 3.22145 146.851 3.21426 141.712 3.20684C138.592 3.20209 135.481 3.19035 132.361 3.18562C131.31 3.1821 130.267 3.17162 129.217 3.18156C123.666 3.23312 118.115 3.29143 112.565 3.3497C109.462 3.37813 106.368 3.41304 103.265 3.44147C102.166 3.45282 101.057 3.45096 99.9571 3.47579C94.2343 3.59289 88.5116 3.71001 82.7889 3.8271C79.2158 3.89597 75.6518 3.97131 72.0799 4.08056C66.0034 4.26842 59.9267 4.44954 53.8583 4.63717C52.659 4.67159 51.4616 4.74639 50.264 4.81444C46.9096 4.99153 43.5633 5.16837 40.2082 5.34548C37.697 5.47816 35.1851 5.61083 32.6651 5.74377C30.8806 5.83539 29.1061 5.99409 27.3227 6.1261C22.0792 6.50556 16.8354 6.89853 11.6009 7.3114C10.2723 7.41688 8.94325 7.53582 7.61426 7.65478C6.18641 7.77658 4.75877 7.9051 3.34038 8.07377C3.11768 8.1071 2.90399 8.14692 2.68167 8.19371C2.1216 8.30407 1.58388 8.29256 1.07263 8.07152C0.603055 7.86275 0.245744 7.50259 0.0845903 7.08292C-0.238875 6.20322 0.395517 5.23539 1.47999 4.95508C2.43266 4.71223 3.42292 4.59629 4.4038 4.48733C5.08009 4.41404 5.74806 4.33426 6.42508 4.26095C7.71939 4.11605 9.02409 4.02469 10.3207 3.90666C12.7554 3.70883 15.2002 3.55112 17.6361 3.36672Z" fill="#3CC186"/>
</svg>
