<svg width="757" height="285" viewBox="0 0 757 285" fill="none" xmlns="http://www.w3.org/2000/svg">
<path d="M281 931.591C542.783 931.591 755 723.383 755 466.545C755 209.708 542.783 1.5 281 1.5C19.217 1.5 -193 209.708 -193 466.545C-193 723.383 19.217 931.591 281 931.591Z" stroke="white" stroke-opacity="0.02" stroke-width="3" stroke-linecap="round" stroke-linejoin="round"/>
<path d="M281.002 894.58C521.951 894.58 717.279 702.942 717.279 466.545C717.279 230.148 521.951 38.5099 281.002 38.5099C40.0526 38.5099 -155.275 230.148 -155.275 466.545C-155.275 702.942 40.0526 894.58 281.002 894.58Z" stroke="white" stroke-opacity="0.02" stroke-width="3" stroke-linecap="round" stroke-linejoin="round"/>
<path d="M280.999 857.556C501.107 857.556 679.54 682.495 679.54 466.545C679.54 250.596 501.107 75.5342 280.999 75.5342C60.8916 75.5342 -117.541 250.596 -117.541 466.545C-117.541 682.495 60.8916 857.556 280.999 857.556Z" stroke="white" stroke-opacity="0.02" stroke-width="3" stroke-linecap="round" stroke-linejoin="round"/>
<path d="M280.999 820.547C480.273 820.547 641.817 662.055 641.817 466.546C641.817 271.036 480.273 112.545 280.999 112.545C81.7251 112.545 -79.8184 271.036 -79.8184 466.546C-79.8184 662.055 81.7251 820.547 280.999 820.547Z" stroke="white" stroke-opacity="0.02" stroke-width="3" stroke-linecap="round" stroke-linejoin="round"/>
<path d="M281.001 783.523C459.433 783.523 604.081 641.607 604.081 466.546C604.081 291.484 459.433 149.568 281.001 149.568C102.568 149.568 -42.0801 291.484 -42.0801 466.546C-42.0801 641.607 102.568 783.523 281.001 783.523Z" stroke="white" stroke-opacity="0.02" stroke-width="3" stroke-linecap="round" stroke-linejoin="round"/>
<path d="M280.998 746.512C438.597 746.512 566.356 621.167 566.356 466.545C566.356 311.924 438.597 186.578 280.998 186.578C123.4 186.578 -4.35938 311.924 -4.35938 466.545C-4.35938 621.167 123.4 746.512 280.998 746.512Z" stroke="white" stroke-opacity="0.02" stroke-width="3" stroke-linecap="round" stroke-linejoin="round"/>
<path d="M281 709.489C417.757 709.489 528.621 600.719 528.621 466.546C528.621 332.372 417.757 223.603 281 223.603C144.243 223.603 33.3789 332.372 33.3789 466.546C33.3789 600.719 144.243 709.489 281 709.489Z" stroke="white" stroke-opacity="0.02" stroke-width="3" stroke-linecap="round" stroke-linejoin="round"/>
<path d="M281 672.478C396.923 672.478 490.898 580.279 490.898 466.545C490.898 352.812 396.923 260.612 281 260.612C165.076 260.612 71.1016 352.812 71.1016 466.545C71.1016 580.279 165.076 672.478 281 672.478Z" stroke="white" stroke-opacity="0.02" stroke-width="3" stroke-linecap="round" stroke-linejoin="round"/>
</svg>
