<svg width="951" height="934" viewBox="0 0 951 934" fill="none" xmlns="http://www.w3.org/2000/svg">
<path d="M475.5 931.591C737.283 931.591 949.5 723.383 949.5 466.545C949.5 209.708 737.283 1.5 475.5 1.5C213.717 1.5 1.5 209.708 1.5 466.545C1.5 723.383 213.717 931.591 475.5 931.591Z" stroke="white" stroke-opacity="0.02" stroke-width="3" stroke-linecap="round" stroke-linejoin="round"/>
<path d="M475.502 894.58C716.451 894.58 911.779 702.942 911.779 466.545C911.779 230.148 716.451 38.5099 475.502 38.5099C234.553 38.5099 39.2246 230.148 39.2246 466.545C39.2246 702.942 234.553 894.58 475.502 894.58Z" stroke="white" stroke-opacity="0.02" stroke-width="3" stroke-linecap="round" stroke-linejoin="round"/>
<path d="M475.499 857.556C695.607 857.556 874.04 682.495 874.04 466.545C874.04 250.596 695.607 75.5342 475.499 75.5342C255.392 75.5342 76.959 250.596 76.959 466.545C76.959 682.495 255.392 857.556 475.499 857.556Z" stroke="white" stroke-opacity="0.02" stroke-width="3" stroke-linecap="round" stroke-linejoin="round"/>
<path d="M475.499 820.547C674.773 820.547 836.317 662.055 836.317 466.546C836.317 271.036 674.773 112.545 475.499 112.545C276.225 112.545 114.682 271.036 114.682 466.546C114.682 662.055 276.225 820.547 475.499 820.547Z" stroke="white" stroke-opacity="0.02" stroke-width="3" stroke-linecap="round" stroke-linejoin="round"/>
<path d="M475.501 783.523C653.933 783.523 798.581 641.607 798.581 466.546C798.581 291.484 653.933 149.568 475.501 149.568C297.068 149.568 152.42 291.484 152.42 466.546C152.42 641.607 297.068 783.523 475.501 783.523Z" stroke="white" stroke-opacity="0.02" stroke-width="3" stroke-linecap="round" stroke-linejoin="round"/>
<path d="M475.498 746.512C633.097 746.512 760.856 621.167 760.856 466.545C760.856 311.924 633.097 186.578 475.498 186.578C317.9 186.578 190.141 311.924 190.141 466.545C190.141 621.167 317.9 746.512 475.498 746.512Z" stroke="white" stroke-opacity="0.02" stroke-width="3" stroke-linecap="round" stroke-linejoin="round"/>
<path d="M475.5 709.489C612.257 709.489 723.121 600.719 723.121 466.546C723.121 332.372 612.257 223.603 475.5 223.603C338.743 223.603 227.879 332.372 227.879 466.546C227.879 600.719 338.743 709.489 475.5 709.489Z" stroke="white" stroke-opacity="0.02" stroke-width="3" stroke-linecap="round" stroke-linejoin="round"/>
<path d="M475.5 672.478C591.423 672.478 685.398 580.279 685.398 466.545C685.398 352.812 591.423 260.612 475.5 260.612C359.576 260.612 265.602 352.812 265.602 466.545C265.602 580.279 359.576 672.478 475.5 672.478Z" stroke="white" stroke-opacity="0.02" stroke-width="3" stroke-linecap="round" stroke-linejoin="round"/>
<path d="M475.499 635.454C570.581 635.454 647.661 559.831 647.661 466.545C647.661 373.259 570.581 297.636 475.499 297.636C380.417 297.636 303.338 373.259 303.338 466.545C303.338 559.831 380.417 635.454 475.499 635.454Z" stroke="white" stroke-opacity="0.02" stroke-width="3" stroke-linecap="round" stroke-linejoin="round"/>
<path d="M475.501 598.445C549.749 598.445 609.94 539.391 609.94 466.546C609.94 393.7 549.749 334.647 475.501 334.647C401.253 334.647 341.062 393.7 341.062 466.546C341.062 539.391 401.253 598.445 475.501 598.445Z" stroke="white" stroke-opacity="0.02" stroke-width="3" stroke-linecap="round" stroke-linejoin="round"/>
<path d="M475.5 561.42C528.907 561.42 572.202 518.943 572.202 466.545C572.202 414.147 528.907 371.671 475.5 371.671C422.094 371.671 378.799 414.147 378.799 466.545C378.799 518.943 422.094 561.42 475.5 561.42Z" stroke="white" stroke-opacity="0.02" stroke-width="3" stroke-linecap="round" stroke-linejoin="round"/>
<path d="M475.498 524.41C508.071 524.41 534.477 498.503 534.477 466.545C534.477 434.588 508.071 408.681 475.498 408.681C442.925 408.681 416.52 434.588 416.52 466.545C416.52 498.503 442.925 524.41 475.498 524.41Z" stroke="white" stroke-opacity="0.02" stroke-width="3" stroke-linecap="round" stroke-linejoin="round"/>
</svg>
